<?xml version="1.0" encoding="UTF-8"?>
<svg width="46px" height="46px" viewBox="0 0 46 46" version="1.1" xmlns="http://www.w3.org/2000/svg" xmlns:xlink="http://www.w3.org/1999/xlink">
    <!-- Generator: Sketch 52.2 (67145) - http://www.bohemiancoding.com/sketch -->
    <title>Group 5</title>
    <desc>Created with Sketch.</desc>
    <g id="Page-1" stroke="none" stroke-width="1" fill="none" fill-rule="evenodd">
        <g id="Brucellose-chat-non-ouvert" transform="translate(-1394.000000, -3399.000000)">
            <g id="Group-5" transform="translate(1394.000000, 3399.000000)">
                <path d="M23,1.07291953e-12 L46,1.07291953e-12 L46,46 L23,46 C10.2974508,46 5.16699097e-13,35.7025492 5.15143483e-13,23 L5.15143483e-13,23 C5.1358787e-13,10.2974508 10.2974508,1.07525295e-12 23,1.07291953e-12 Z" id="Rectangle" fill="#FFFFFF" fill-rule="nonzero"></path>
                <g id="comment-black-oval-bubble-shape" transform="translate(16.000000, 14.000000)" fill="#00967F">
                    <path d="M18.6609724,3.73175612 C17.7680137,2.57964059 16.5550941,1.66961132 15.0225263,1.00175038 C13.4899976,0.33397151 11.8156853,0 10.0001759,0 C8.64594185,0 7.35128268,0.197190109 6.11619839,0.591652404 C4.8811141,0.98607366 3.81717078,1.51920513 2.92429025,2.19092369 C2.03125336,2.86272433 1.32085023,3.66141609 0.792494503,4.58695793 C0.264138774,5.5125408 0,6.48314294 0,7.49860018 C0,8.67020901 0.33657464,9.76803057 1.00999756,10.7912851 C1.68342047,11.8144166 2.6040557,12.6737633 3.77233325,13.3689559 C3.69039824,13.6813001 3.59368678,13.9782138 3.48204251,14.2592046 C3.37043733,14.5404006 3.27001222,14.7711191 3.18072807,14.9507448 C3.09136575,15.1303704 2.97057415,15.3296534 2.81792328,15.5483477 C2.66550696,15.767001 2.55018813,15.9213469 2.47204495,16.0110571 C2.39397997,16.1009315 2.26564378,16.249573 2.08695822,16.4562841 C1.90850721,16.6634465 1.79311019,16.7980939 1.74107989,16.8607187 C1.7335353,16.8643711 1.70382604,16.8997874 1.65175666,16.9660646 C1.59972636,17.0323418 1.57361349,17.0655009 1.57361349,17.0655009 L1.50665038,17.1708058 C1.46939653,17.2295319 1.45266553,17.2665897 1.45634009,17.2818971 C1.46009284,17.2972045 1.45266553,17.3365194 1.43405815,17.3988979 C1.41541168,17.4615227 1.41732714,17.5084297 1.43960909,17.5397832 L1.43960909,17.5514381 C1.4695138,17.6921592 1.53460054,17.8053435 1.63498656,17.891114 C1.73537259,17.9769666 1.84897141,18.0121776 1.97539213,17.9962957 C2.45914488,17.9338351 2.88320547,17.8483108 3.24773027,17.7387379 C5.19720498,17.2151684 6.90857562,16.2702975 8.3817249,14.903099 C8.93963352,14.9655597 9.47909113,14.9969131 9.99994136,14.9969131 C11.8154117,14.9969131 13.4896457,14.6629416 15.0223308,13.9948754 C16.5550159,13.3270966 17.7678182,12.4170263 18.6606206,11.2651159 C19.5535793,10.1134929 20,8.85767299 20,7.49855914 C20.0000391,6.13940426 19.5536575,4.88366646 18.6609724,3.73175612 Z" id="Path"></path>
                </g>
            </g>
        </g>
    </g>
</svg>