<?xml version="1.0" encoding="UTF-8"?>
<svg width="35px" height="32px" viewBox="0 0 35 32" version="1.1" xmlns="http://www.w3.org/2000/svg" xmlns:xlink="http://www.w3.org/1999/xlink">
    <!-- Generator: Sketch 52.2 (67145) - http://www.bohemiancoding.com/sketch -->
    <title>Path</title>
    <desc>Created with Sketch.</desc>
    <g id="Page-1" stroke="none" stroke-width="1" fill="none" fill-rule="evenodd">
        <g id="Brucellose-chat-ouvert" transform="translate(-1101.000000, -2984.000000)" fill="#FFFFFF">
            <g id="Group-8" transform="translate(1075.000000, 2963.000000)">
                <g id="Group-7">
                    <g id="comment-black-oval-bubble-shape" transform="translate(26.000000, 21.000000)">
                        <path d="M32.6567017,6.63423311 C31.0940239,4.58602772 28.9714146,2.9681979 26.289421,1.78088956 C23.6074957,0.593727129 20.6774493,0 17.5003078,0 C15.1303982,0 12.8647447,0.350560193 10.7033472,1.0518265 C8.54194967,1.75301984 6.68004886,2.70080912 5.11750794,3.89497545 C3.55469338,5.0892877 2.31148791,6.50918416 1.38686538,8.15459187 C0.462242854,9.80007254 0,11.5255874 0,13.3308448 C0,15.4137049 0.589005619,17.3653877 1.76749572,19.1845069 C2.94598583,21.0034073 4.55709748,22.5311347 6.60158319,23.7670327 C6.45819692,24.3223113 6.28895187,24.8501579 6.0935744,25.349697 C5.89826533,25.849601 5.72252138,26.2597674 5.56627413,26.5791018 C5.40989006,26.8984362 5.19850476,27.2527172 4.93136575,27.6415071 C4.66463719,28.030224 4.46282922,28.3046167 4.32607867,28.4641015 C4.18946494,28.6238782 3.96487662,28.8881298 3.65217689,29.2556161 C3.33988761,29.6239049 3.13794283,29.8632781 3.04688981,29.974611 C3.03368678,29.9811042 2.98169558,30.0440665 2.89057415,30.1618926 C2.79952113,30.2797188 2.7538236,30.3386683 2.7538236,30.3386683 L2.63663816,30.525877 C2.57144393,30.630279 2.54216467,30.6961595 2.54859516,30.7233726 C2.55516247,30.7505857 2.54216467,30.8204789 2.50960176,30.9313741 C2.47697044,31.042707 2.4803225,31.1260973 2.51931591,31.1818367 L2.51931591,31.2025566 C2.57164916,31.4527275 2.68555094,31.6539439 2.86122648,31.8064248 C3.03690203,31.9590517 3.23569998,32.0216491 3.45693623,31.9934146 C4.30350354,31.8823735 5.04560958,31.7303303 5.68352797,31.5355341 C9.09510872,30.6047439 12.0900073,28.9249733 14.6680186,26.4943983 C15.6443587,26.6054394 16.5884095,26.6611788 17.4998974,26.6611788 C20.6769704,26.6611788 23.60688,26.0674517 26.2890789,24.8797786 C28.9712778,23.6926161 31.0936819,22.0747134 32.656086,20.0268728 C34.2187637,17.9795429 35,15.7469742 35,13.3307718 C35.0000684,10.9144965 34.2189006,8.6820737 32.6567017,6.63423311 Z" id="Path"></path>
                    </g>
                </g>
            </g>
        </g>
    </g>
</svg>