<?xml version="1.0" encoding="UTF-8"?>
<svg width="30px" height="24px" viewBox="0 0 30 24" version="1.1" xmlns="http://www.w3.org/2000/svg" xmlns:xlink="http://www.w3.org/1999/xlink">
    <!-- Generator: Sketch 52.2 (67145) - http://www.bohemiancoding.com/sketch -->
    <title>left-arrow (1)</title>
    <desc>Created with Sketch.</desc>
    <g id="Page-1" stroke="none" stroke-width="1" fill="none" fill-rule="evenodd">
        <g id="Brucellose" transform="translate(-15.000000, -107.000000)" fill="#FFFFFF">
            <g id="left-arrow-(1)" transform="translate(15.000000, 107.000000)">
                <path d="M28.3136589,9.7340916 L28.3604882,9.74395818 L8.28585839,9.74395818 L14.5965887,3.65228116 C14.905613,3.35487407 15.0751252,2.95198849 15.0751252,2.52913481 C15.0751252,2.10628114 14.905613,1.70621458 14.5965887,1.40810274 L13.6146377,0.461850181 C13.3058573,0.164443096 12.894394,0 12.4556136,0 C12.0165893,0 11.6048821,0.163268502 11.2961016,0.460675587 L0.478299113,10.8790854 C0.168299181,11.1776671 -0.00121297745,11.5753844 6.534478e-06,11.998473 C-0.00121297745,12.4239108 0.168299181,12.8218631 0.478299113,13.1199749 L11.2961016,23.5393244 C11.6048821,23.8364966 12.0163454,24 12.4556136,24 C12.894394,24 13.3058573,23.8362617 13.6146377,23.5393244 L14.5965887,22.5930719 C14.905613,22.2961346 15.0751252,21.8995918 15.0751252,21.4767382 C15.0751252,21.0541194 14.905613,20.6784844 14.5965887,20.3813122 L8.21463889,14.255572 L28.3360979,14.255572 C29.2402441,14.255572 30,13.5050067 30,12.6346329 L30,11.296301 C30,10.4259272 29.217805,9.7340916 28.3136589,9.7340916 Z" id="Path"></path>
            </g>
        </g>
    </g>
</svg>